# xmcd
#
# Track frame offsets: 
#        150
#        10235
#        17882
#        25587
#        34384
#        48676
#        56981
#        66649
#        78582
#        86579
#        95238
#        105224
#        112362
#        121652
#        130936
#        142797
#        152072
#        160324
#        168369
#        179517
#
# Disc length: 2534 seconds
#
# Revision: 0
# Processed by: cddbd v1.5.1PL2 Copyright (c) Steve Scherf et al.
# Submitted via: ExactAudioCopy v0.95b3
#
DISCID=1709e414
DTITLE=Jim Reeves - Mexican Joe
DYEAR=2005
DGENRE=Country
TTITLE0=He'll Have To Go
TTITLE1=In A Mansion Stands My Love
TTITLE2=Bimbo
TTITLE3=Old Time Religion
TTITLE4=The Highway To Nowhere
TTITLE5=Waiting For A Train
TTITLE6=Dear Hearts and Gentle People
TTITLE7=Mexican Joe
TTITLE8=Roly Poly
TTITLE9=An Evening Prayer
TTITLE10=Everywhere You Go
TTITLE11=Billy Bayou
TTITLE12=Home
TTITLE13=I've Lived A Lot In My Time
TTITLE14=Beyond The Shadow Of A Doubt
TTITLE15=Sweet Evening Breeze
TTITLE16=Yonder Comes A Sucker
TTITLE17=When God Dips His Love In My Heart
TTITLE18=Peace In The Valley
TTITLE19=Unknown Bonus Track
EXTD=
EXTT0=
EXTT1=
EXTT2=
EXTT3=
EXTT4=
EXTT5=
EXTT6=
EXTT7=
EXTT8=
EXTT9=
EXTT10=
EXTT11=
EXTT12=
EXTT13=
EXTT14=
EXTT15=
EXTT16=
EXTT17=
EXTT18=
EXTT19=
PLAYORDER=
